<svg xmlns="http://www.w3.org/2000/svg" width="1000" height="162" viewBox="0 0 1000 162">
  <defs>
    <style>
      .cls-1 {
        fill: #fff;
        fill-rule: evenodd;
      }
    </style>
  </defs>
  <path id="_MINISHOP" data-name="&lt;/MINISHOP" class="cls-1" d="M111.984,100.484L54.242,77.254l57.742-23.3V34.356L28.563,69.016V85.566l83.422,34.661V100.484Zm67.168-76L123.266,130.1h19.89L199.117,24.484H179.152ZM333.9,25.895H305.77L274,64.488,242.387,25.895H214.258V128.762h30.133v-59.6l28.054,34.512h2.45l27.98-34.512v59.6H333.9V25.895Zm57.149,0H360.023V128.762h31.024V25.895Zm137.676,0h-30.95v57l-53.214-57H417.023V128.762H447.75v-57.3l53.363,57.3h27.61V25.895Zm57,0H554.7V128.762h31.024V25.895ZM635.6,23.742A30.054,30.054,0,0,0,614.52,31.79a25.488,25.488,0,0,0-8.758,19.471q0,8.235,3.6,13.464a25.329,25.329,0,0,0,8.763,8.048,157.353,157.353,0,0,0,17.18,7.432q12.018,4.615,15.951,9.922a20.066,20.066,0,0,1-2.412,26.574,21.832,21.832,0,0,1-15.549,5.975q-11.06,0-26.125-11.059v9.426q13.654,9.055,26.57,9.055a30.04,30.04,0,0,0,21.375-8.239,26.644,26.644,0,0,0,8.758-20.187q0-8.979-3.785-14.621a26.285,26.285,0,0,0-9.2-8.609,147.027,147.027,0,0,0-17.219-7.422q-11.8-4.453-15.512-9.277a17.324,17.324,0,0,1-3.711-10.836,18.209,18.209,0,0,1,6.272-14.064,22.406,22.406,0,0,1,15.623-5.678q9.721,0,23.23,7.941V30.273A49.3,49.3,0,0,0,635.6,23.742h0ZM759.32,25.078V72.949H690.148V25.078h-8.015V128.762h8.015V79.629H759.32v49.133h8.09V25.078h-8.09Zm43.752,14.139a50.633,50.633,0,0,0-15.92,37.74,50.547,50.547,0,0,0,15.92,37.666Q818.993,130.1,841.926,130.1q23.007,0,39-15.475a50.435,50.435,0,0,0,15.994-37.666,50.521,50.521,0,0,0-15.994-37.74q-15.995-15.475-39-15.475Q818.992,23.742,803.072,39.217Zm6.235,70.211a43.782,43.782,0,0,1-13.471-32.471q0-19.3,13.471-32.545t32.916-13.248q19.371,0,32.693,13.248t13.322,32.545q0,19.223-13.322,32.471t-32.693,13.248Q822.777,122.676,809.307,109.428Zm107.134,19.334h8.016V80.3h19.816q16.995,0,25.791-7.5t8.8-20.336q0-12.691-8.72-20.039t-25.123-7.348H916.441V128.762Zm28.278-97q12.319,0,18.926,5.641t6.605,15.215q0,10.02-6.754,15.512t-19.742,5.492h-19.3V31.758h20.262Z"/>
</svg>
