<?xml version="1.0" standalone="no"?>
<!DOCTYPE svg PUBLIC "-//W3C//DTD SVG 20010904//EN"
 "http://www.w3.org/TR/2001/REC-SVG-20010904/DTD/svg10.dtd">
<svg version="1.0" xmlns="http://www.w3.org/2000/svg"
 width="500.000000pt" height="500.000000pt" viewBox="0 0 500.000000 500.000000"
 preserveAspectRatio="xMidYMid meet">
<metadata>
Created by potrace 1.11, written by Peter Selinger 2001-2013
</metadata>
<g transform="translate(0.000000,500.000000) scale(0.100000,-0.100000)"
fill="#000000" stroke="none">
<path d="M2245 4635 c-869 -111 -1581 -720 -1813 -1551 -158 -564 -81 -1175
211 -1666 340 -572 887 -943 1539 -1045 156 -24 480 -24 636 0 501 79 943 317
1280 690 281 313 462 695 529 1119 24 156 24 480 0 636 -79 503 -316 942 -694
1283 -306 276 -692 459 -1109 525 -139 22 -442 27 -579 9z m178 -1096 c107
-31 164 -107 154 -209 -6 -74 -27 -108 -178 -295 -66 -82 -136 -180 -155 -217
-27 -54 -39 -68 -68 -78 -86 -28 -206 54 -206 141 1 51 29 104 110 204 40 50
82 109 93 132 19 39 19 43 3 67 -21 33 -50 33 -112 0 -71 -38 -145 -96 -263
-209 -369 -354 -553 -683 -568 -1018 -7 -146 10 -224 64 -287 46 -53 80 -70
146 -70 88 0 163 44 282 164 112 113 213 256 299 426 31 60 68 118 82 129 107
84 260 -102 224 -273 -20 -95 -175 -324 -311 -457 -103 -101 -229 -184 -337
-222 -249 -88 -504 6 -641 236 -81 137 -113 269 -113 467 0 150 15 239 64 378
163 465 573 838 1068 971 140 38 274 46 363 20z m977 -594 c57 -29 79 -95 43
-128 -10 -8 -38 -20 -63 -27 -91 -24 -229 -104 -361 -210 -105 -83 -328 -311
-350 -358 -22 -44 -20 -72 5 -72 8 0 56 39 108 87 51 47 149 131 218 186 246
197 347 245 429 202 66 -34 67 -135 3 -270 -112 -232 12 -233 298 -1 41 34
104 88 140 122 36 34 75 66 87 73 56 29 103 1 103 -62 0 -36 -7 -46 -72 -111
-153 -149 -445 -367 -572 -427 -87 -41 -142 -46 -199 -21 -59 26 -81 66 -80
147 1 59 6 77 68 223 56 133 2 98 -291 -189 -250 -243 -306 -289 -359 -289
-93 0 -165 93 -165 215 0 204 262 570 541 758 195 130 389 193 469 152z"/>
</g>
</svg>
