<?xml version="1.0" encoding="utf-8"?>
<!-- Generator: Adobe Illustrator 21.0.0, SVG Export Plug-In . SVG Version: 6.00 Build 0)  -->
<svg version="1.1" id="Capa_1" xmlns="http://www.w3.org/2000/svg" xmlns:xlink="http://www.w3.org/1999/xlink" x="0px" y="0px"
	 viewBox="0 0 635 612" style="enable-background:new 0 0 635 612;" xml:space="preserve">
<style type="text/css">
	.st0{stroke:#FFFFFF;stroke-width:16;stroke-miterlimit:10;}
</style>
<g>
	<g id="_x36__30_">
		<g>
			<path class="st0" d="M343.7,425.4c-7.5,7.5-7.5,19.6,0,27c7.5,7.5,19.6,7.5,27,0l131.9-132c4-4,5.7-9.3,5.4-14.5
				c0.3-5.2-1.4-10.5-5.4-14.5L370.7,159.6c-7.5-7.5-19.6-7.5-27,0c-7.5,7.5-7.5,19.6,0,27L444,286.9H31.1
				c-10.6,0-19.1,8.6-19.1,19.1s8.6,19.1,19.1,19.1H444L343.7,425.4z M547.5,38.2H165c-42.2,0-76.5,34.3-76.5,76.5v76.5h38.2v-76.5
				c0-21.1,17.1-38.2,38.2-38.2h382.5c21.1,0,38.2,17.1,38.2,38.2v382.5c0,21.1-17.1,38.2-38.2,38.2H165
				c-21.1,0-38.2-17.1-38.2-38.2v-76.5H88.5v76.5c0,42.2,34.3,76.5,76.5,76.5h382.5c42.2,0,76.5-34.3,76.5-76.5V114.7
				C624,72.5,589.7,38.2,547.5,38.2z"/>
		</g>
	</g>
</g>
</svg>
