<?xml version="1.0" encoding="utf-8"?>
<!-- Generator: Adobe Illustrator 21.0.0, SVG Export Plug-In . SVG Version: 6.00 Build 0)  -->
<svg version="1.1" id="Capa_1" xmlns="http://www.w3.org/2000/svg" xmlns:xlink="http://www.w3.org/1999/xlink" x="0px" y="0px"
	 viewBox="0 0 635 612" style="enable-background:new 0 0 635 612;" xml:space="preserve">
<style type="text/css">
	.st0{stroke:#FFFFFF;stroke-width:16;stroke-miterlimit:10;}
</style>
<path class="st0" d="M12,114.7v382.4c0,42.3,34.3,76.5,76.5,76.5H471c42.3,0,76.5-34.3,76.5-76.5v-76.4c0,0,0,0,0,0h-38.2
	c0,0,0,0,0,0v76.4c0,21.1-17.1,38.2-38.2,38.2H88.6c-21.1,0-38.2-17.1-38.2-38.2V114.7c0-21.1,17.1-38.2,38.2-38.2h382.4
	c21.1,0,38.2,17.1,38.2,38.2v76.4c0,0,0,0,0,0h38.1c0,0,0,0,0,0v-76.4c0-42.3-34.3-76.5-76.5-76.5H88.5C46.3,38.2,12,72.5,12,114.7z
	"/>
<path class="st0" d="M501.4,322.5L401.2,422.7c-7.5,7.5-7.5,19.6,0,27c7.5,7.5,19.6,7.5,27,0l131.9-132c4-4,5.7-9.3,5.4-14.5
	c0,0,0,0,0,0c0.3-5.2-1.4-10.5-5.4-14.5L428.2,156.9c-7.5-7.5-19.6-7.5-27,0c-7.5,7.5-7.5,19.6,0,27l100.2,100.2c0,0,0,0.1,0,0.1
	H88.6c-10.9,0-19.5,9-19.1,19.9c0.4,10.3,9.3,18.3,19.6,18.3L501.4,322.5C501.4,322.4,501.4,322.5,501.4,322.5z"/>
</svg>
