<svg id="Calque_1" data-name="Calque 1" xmlns="http://www.w3.org/2000/svg" viewBox="0 0 1362.9 350.36"><defs><style>.cls-1{isolation:isolate;}</style></defs><title>logo</title><g id="Camagru" class="cls-1"><g class="cls-1"><path d="M284.11,80.89q-3.21-2.4-11,1.2t-19.2,12.6a282.53,282.53,0,0,0-25.4,23.2q-14,14.2-29.6,33.4a184.82,184.82,0,0,0-25,39.8,174.44,174.44,0,0,0-13,39.4q-3.6,18.81-1.6,33.8t9.2,23q8.4,8.79,18.2,8.8t19.8-6a97.31,97.31,0,0,0,19.8-16.2,194.66,194.66,0,0,0,18.2-22q8.4-11.79,15-23.2a190.51,190.51,0,0,0,10.2-19.8q3.6-8,8.6-10.6a12,12,0,0,1,10-.8,23.21,23.21,0,0,1,9.4,6.8,35.66,35.66,0,0,1,6.8,11.8,38.42,38.42,0,0,1,2,14.8,34.54,34.54,0,0,1-4.4,15.2q-18.81,32.4-38.6,51.4t-39,26.8q-19.2,7.8-36.6,5.8a67.2,67.2,0,0,1-31.2-11.6,79.86,79.86,0,0,1-23.2-25.6,102.39,102.39,0,0,1-12.6-36.4,148,148,0,0,1,5.2-69.2,191.29,191.29,0,0,1,32.8-61.2,214.41,214.41,0,0,1,52.2-47,205.6,205.6,0,0,1,63.8-27.4q22.8-5.19,36.4-3t20.2,8.4a22.51,22.51,0,0,1,7.4,14.6,31.61,31.61,0,0,1-2,15.2,76.59,76.59,0,0,1-9.6,14.8q-6.4,8-13.2,16.2t-12.8,16.2a57.09,57.09,0,0,0-8.4,14.8q-2.4,6.81-9,7.8a22.18,22.18,0,0,1-13-2,24.25,24.25,0,0,1-10.4-9.4q-4-6.39-.8-14.4a56.47,56.47,0,0,1,9.2-15.2q6-7.2,11-13.6a47,47,0,0,0,7-11.6Q288.91,85.3,284.11,80.89Z" transform="translate(-119 -48.04)"/><path d="M447.31,148.89q-12,2.8-25.4,11a245.12,245.12,0,0,0-25.6,18,276.6,276.6,0,0,0-22.4,20q-10.2,10.2-16.2,16.6-6,6.81-8.2,11.8t-1.6,7.4q.6,2.4,3.6,1.8t7.8-5.4q4.8-4.8,12.6-11.8t17-14.6q9.2-7.59,19-15a200.09,200.09,0,0,1,18.6-12.6q8.79-5.19,16.4-5.8t11.8,3.8q4.2,4.41,3.8,13.2t-7.6,22q-4.8,8.4-5,13.2t1.8,7a6.63,6.63,0,0,0,5.6,2,17.12,17.12,0,0,0,6.8-1.8q11.6-5.19,27-17.2a313.73,313.73,0,0,0,29-25.6q5.19-5.19,10.2-5.8t7.6,2.2q2.6,2.8,2,7.6t-5.8,10q-8,8-18.8,17.2t-22.2,18q-11.4,8.8-22.6,16.2a119.17,119.17,0,0,1-20,11q-10,4.41-17.8,3a18.36,18.36,0,0,1-12-7q-4.2-5.6-3.8-15.2t6.8-22.4q6.8-13.2,5.2-15.8t-7.2,1.4q-3.21,2-11.2,9.8t-18.2,18q-10.2,10.2-21,20.6t-19.2,17.6q-6.8,6-14.8,5.2a19.28,19.28,0,0,1-13.4-7.4q-5.4-6.6-6.4-18.2t6.2-26.8a176.42,176.42,0,0,1,19-31.4,197.89,197.89,0,0,1,26.8-29.2,192.67,192.67,0,0,1,32.4-23.4,125,125,0,0,1,35.8-14,20.58,20.58,0,0,1,12.8.8,16.51,16.51,0,0,1,8,6.4,9.1,9.1,0,0,1,1,8Q454.1,147.29,447.31,148.89Z" transform="translate(-119 -48.04)"/><path d="M516.1,186.89q6.8-6.8,15.2-14.8t17.2-15.8q8.79-7.8,17-14.4a154.11,154.11,0,0,1,14.6-10.6,40.84,40.84,0,0,1,17.2-6.8q8.79-1.2,14.8,1t8.2,7.2q2.19,5-2.6,11.8-9.21,14-18,25a139.36,139.36,0,0,0-13.2,19q-4.41,8-2.8,9.6t9.6-5.6q4.4-4,11.6-10t15.4-12q8.19-6,16.6-11.4a168.82,168.82,0,0,1,15.6-9,50.51,50.51,0,0,1,15.2-4.8q8-1.2,13.6.6t7.2,6.6q1.59,4.8-3.6,13.6-5.61,8.8-11.8,18t-12,17.6q-5.8,8.4-10.6,15.4t-7.2,11q-4.41,8.4-1.2,8.4t10.8-8.4q3.6-4,12.6-13t20.6-19.2q11.6-10.2,24.8-20a203.22,203.22,0,0,1,25.2-16.2q12-6.39,20.6-6.8t13.4,3.2a12,12,0,0,1,4.8,10.2q0,6.6-5.6,14.2-4.8,6.81-9.2,13.4t-8,12.6q-3.6,6-6,10.8a61.44,61.44,0,0,0-3.2,7.2,5.44,5.44,0,0,0,1.2,6q2.4,2.4,9.8-.4t20.6-12.6q13.2-9.8,34.4-30.6,4.8-4.8,9.4-5t7.2,2.2q2.6,2.4,2.4,7t-5,9.8q-19.6,19.2-38.6,35.8a227.73,227.73,0,0,1-37.4,27,40.15,40.15,0,0,1-16.8,5q-8.8.6-15-3.4t-8-13q-1.8-9,4.6-23.8a125.9,125.9,0,0,1,7.8-16,121.94,121.94,0,0,0,6.6-12.8q2-5.6-1-6.2t-12.2,7.4q-8.4,7.2-22.6,20.8t-28.6,28.8q-14.4,15.21-26.4,28.8t-16.4,20.8q-4.41,7.2-10.6,7.2t-11.2-5.4q-5-5.4-7-15.4t2.4-23.2a140.08,140.08,0,0,1,15-33q9.39-15,19.8-28.6,10-14-.4-10.4t-35.6,27.6l-13.2,12.4q-6.81,6.4-13,12.4t-11.4,11.4q-5.2,5.4-8.8,9a10.82,10.82,0,0,1-16.8,0q-3.21-4-3-12t7.4-20q7.2-12.39,14.4-23.8t12.4-19.4q2.79-3.6,2.2-6t-4.2-1.8q-3.6.6-10.4,5.2t-16.8,14.6q-6,6-11.4,7t-8-1.6q-2.6-2.6-1.8-7.8T516.1,186.89Z" transform="translate(-119 -48.04)"/><path d="M910.9,148.89q-12,2.8-25.4,11a245.12,245.12,0,0,0-25.6,18,276.6,276.6,0,0,0-22.4,20q-10.2,10.2-16.2,16.6-6,6.81-8.2,11.8t-1.6,7.4q.6,2.4,3.6,1.8t7.8-5.4q4.8-4.8,12.6-11.8t17-14.6q9.2-7.59,19-15a200.09,200.09,0,0,1,18.6-12.6q8.79-5.19,16.4-5.8t11.8,3.8q4.2,4.41,3.8,13.2t-7.6,22q-4.8,8.4-5,13.2t1.8,7a6.63,6.63,0,0,0,5.6,2,17.12,17.12,0,0,0,6.8-1.8q11.6-5.19,27-17.2a313.73,313.73,0,0,0,29-25.6q5.19-5.19,10.2-5.8t7.6,2.2q2.6,2.8,2,7.6t-5.8,10q-8,8-18.8,17.2t-22.2,18q-11.4,8.8-22.6,16.2a119.17,119.17,0,0,1-20,11q-10,4.41-17.8,3a18.36,18.36,0,0,1-12-7q-4.2-5.6-3.8-15.2t6.8-22.4q6.8-13.2,5.2-15.8t-7.2,1.4q-3.21,2-11.2,9.8t-18.2,18q-10.2,10.2-21,20.6t-19.2,17.6q-6.8,6-14.8,5.2a19.28,19.28,0,0,1-13.4-7.4q-5.4-6.6-6.4-18.2t6.2-26.8a176.35,176.35,0,0,1,19-31.4,197.89,197.89,0,0,1,26.8-29.2,192.67,192.67,0,0,1,32.4-23.4,125,125,0,0,1,35.8-14,20.58,20.58,0,0,1,12.8.8,16.51,16.51,0,0,1,8,6.4,9.1,9.1,0,0,1,1,8Q917.69,147.29,910.9,148.89Z" transform="translate(-119 -48.04)"/><path d="M1154.49,186.89q4.4-4.8,8.6-4.6a9.54,9.54,0,0,1,6.8,3,10.18,10.18,0,0,1,2.6,7.2q0,4.41-4,8.4a528,528,0,0,1-44.8,39.8q-24.4,19.41-47.8,36.8t-43.2,32q-19.8,14.6-30.6,25-6.4,10.4-13.4,20.6a217.62,217.62,0,0,1-14.4,18.8,129.1,129.1,0,0,1-14.8,14.8,44.32,44.32,0,0,1-15,8.6,16.66,16.66,0,0,1-10.8.4,15.64,15.64,0,0,1-8.8-6.2q-3.2-4.6-2.8-12.6t7-19q6.6-11,20.8-25.2t39-31.4q2.79-4.8,7-11.2t8.6-13.4q4.4-7,9-13.6t7.8-11.8q14-22.4,14.8-27.2t-12,6.8q-15.21,14-24.4,22.2t-18,10.6q-9.6,2.4-16.4-2.4t-9.2-14q-2.4-9.2-.4-20.8a61.63,61.63,0,0,1,9.6-23.2,201.11,201.11,0,0,1,19.4-24.2,150.56,150.56,0,0,1,24.6-21.2,142.44,142.44,0,0,1,29.6-15.6,115.45,115.45,0,0,1,34.4-7.4q12.8-.39,20.6,2.4t11.2,7.6a16,16,0,0,1,3,10.6,26.54,26.54,0,0,1-3.6,11.4,10.94,10.94,0,0,1-7.8,5.2,8.18,8.18,0,0,1-8.2-3.2q-3.21-4-9.8-5.4t-20.2.6a65.1,65.1,0,0,0-24.6,8.4,142.11,142.11,0,0,0-21.6,15.2,117.24,117.24,0,0,0-16.6,17.2q-6.81,8.8-9.2,15.2t0,8.8q2.4,2.4,11.6-2t22.8-16.4q13.59-12,38.4-30a15.42,15.42,0,0,1,10-3.4,13.37,13.37,0,0,1,8.6,3.2q3.39,3,3.6,9.2t-5,14.6q-4.8,7.2-10.6,16.6t-11.8,19.4q-6,10-12,19.8t-10.8,18.2q12-8.4,27.6-18.8t32.2-22.4q16.59-12,33.2-25.2A356.54,356.54,0,0,0,1154.49,186.89Z" transform="translate(-119 -48.04)"/><path d="M1154.49,186.89q6.8-6.8,14.4-15t14-15.8a12.77,12.77,0,0,1-3.2-8,28.33,28.33,0,0,1,3.8-14,49.68,49.68,0,0,1,9.6-12.2,44.22,44.22,0,0,1,12.8-8.4,30.26,30.26,0,0,1,13.8-2.6q6,.81,7.8,4.8t-1,9.2q-3.6,7.6-2.2,9.8t9.8,3q7.59.81,12,5.6t2.4,12.8a37.72,37.72,0,0,1-4.8,12q-3.6,6-8.4,12.6t-10.4,14.8a176.39,176.39,0,0,0-10.8,18.2q-14.4,26.8,1.4,20.2t56.2-47q4.8-4.8,9.6-5.2t7.4,2q2.6,2.4,2.4,7.2t-5.4,10q-4,4-11.8,11.2t-16.8,15.2q-9,8-18.2,15.6a177.33,177.33,0,0,1-16,12q-10,6.81-19.6,8t-17.6-6.8q-11.61-11.6-9.8-24.4t13.8-29.6q9.6-14,14.8-23t6.6-14q1.4-5-.6-6.2t-6.4.4q-4.8,6.4-10,12.8t-10.2,12q-5,5.61-9,10t-6.4,6.8q-5.2,5.2-9.8,5.4a9.11,9.11,0,0,1-7.2-2.4q-2.6-2.6-2.2-7.4T1154.49,186.89Z" transform="translate(-119 -48.04)"/><path d="M1271.69,186.89q6.8-7.2,14.2-14.8t14.4-14.6q7-7,13.4-13a103.41,103.41,0,0,1,11.6-9.6,22.87,22.87,0,0,1,10.4-4.2,16.35,16.35,0,0,1,9,1.2,9.75,9.75,0,0,1,5.2,5.8q1.4,4-1,9.6-2.8,5.61-7.4,13.2t-10,15.8q-5.4,8.2-10.4,16.4a159.36,159.36,0,0,0-8.2,15q-10,20.4,13.2,8.4,11.6-6.39,25.6-18.4t26.8-22.8a23.66,23.66,0,0,1,12.8-6,23,23,0,0,1,11.6,1.2,13.09,13.09,0,0,1,7,6.6q2.19,4.6-.6,10.2a77.51,77.51,0,0,0-4.6,10.4q-2.2,6-4.2,11.6-2.4,8.4-.6,13.6t9.2,4.2q7.4-1,20.8-10.2t33.8-29.6q4-4,8.4-4a9.12,9.12,0,0,1,7,2.8,10.72,10.72,0,0,1,2.8,7q.2,4.2-3.8,8.2-33.21,33.21-56,47.8t-35.8,15.4q-13,.81-16.4-10.4t2.2-30.4q5.19-17.19-7.2-8-6.4,4.8-19,15.8a186.89,186.89,0,0,1-31,21.4,73.47,73.47,0,0,1-20.4,7.6q-10,2-15.6-1.6t-4.8-13.6q.8-10,11.6-28,14-24,13.4-26.4t-13.4,10.4q-4.41,4.41-8.8,4.4a9,9,0,0,1-9.6-9.6Q1267.29,191.29,1271.69,186.89Z" transform="translate(-119 -48.04)"/></g></g></svg>